<svg width="566" height="173" viewBox="0 0 566 173" fill="none" xmlns="http://www.w3.org/2000/svg">
<path d="M72.1992 19.6953C56.444 19.6953 47.6224 30.6328 45.7344 52.5078L45.4414 58.5625C56.5091 57.7812 63.6706 57.3906 66.9258 57.3906C77.2773 57.3906 82.4531 60.6458 82.4531 67.1562C82.4531 71.9089 79.9141 74.7409 74.8359 75.6523C72.6224 76.043 70.0182 76.2057 67.0234 76.1406C64.0938 76.0104 56.6068 76.4336 44.5625 77.4102L43.7812 99.6758C43.7812 103.712 43.9115 109.767 44.1719 117.84C44.4323 125.913 44.5625 131.935 44.5625 135.906C44.5625 148.276 43.8464 157.911 42.4141 164.812C41.3073 170.021 38.2799 172.625 33.332 172.625C30.6628 172.625 28.3841 171.746 26.4961 169.988C24.6081 168.296 23.6641 166.147 23.6641 163.543C23.6641 163.022 23.7292 162.371 23.8594 161.59C25.2266 153.126 25.9102 143.914 25.9102 133.953L25.6172 107.293V78.9727C17.4792 79.6237 12.3359 79.9492 10.1875 79.9492C3.61198 79.9492 0.324219 76.7917 0.324219 70.4766C0.324219 64.0312 6.02083 60.6458 17.4141 60.3203L26.7891 60.0273C26.9844 56.3815 27.4727 51.4336 28.2539 45.1836C29.9466 30.7305 33.5924 20.0859 39.1914 13.25C45.9622 4.98177 56.5417 0.847656 70.9297 0.847656C80.2396 0.847656 84.8945 4.00521 84.8945 10.3203C84.8945 16.5703 80.6628 19.6953 72.1992 19.6953ZM225.227 69.5977C220.148 90.8216 213.508 114.812 205.305 141.57C203.482 147.495 200.454 153.582 196.223 159.832C193.944 163.283 190.852 164.975 186.945 164.91C179.849 164.78 174.315 155.958 170.344 138.445C169.042 132.846 167.707 125.229 166.34 115.594L163.117 93.8164L155.109 112.469L140.266 152.801C139.419 155.275 138.182 157.163 136.555 158.465C134.602 162.241 131.477 164.194 127.18 164.324C122.232 164.52 117.447 154.819 112.824 135.223C110.48 125.132 108.137 111.46 105.793 94.207L103.449 79.5586C102.603 73.6992 102.18 68.7839 102.18 64.8125C102.18 62.0781 103.124 59.832 105.012 58.0742C106.965 56.2513 109.309 55.3398 112.043 55.3398C116.991 55.3398 120.051 58.0417 121.223 63.4453C122.069 67.2865 122.753 72.0391 123.273 77.7031L124.738 92.0586L130.5 135.906C137.727 115.854 145.214 92.7422 152.961 66.5703C155.109 59.3438 158.853 55.7305 164.191 55.7305C169.335 55.7305 172.818 59.7669 174.641 67.8398C176.333 75.457 178.449 87.1758 180.988 102.996C183.592 119.402 185.904 132.195 187.922 141.375L195.051 114.812L207.648 61.5898C208.625 57.6185 211.424 55.6328 216.047 55.6328C218.781 55.6328 221.158 56.5768 223.176 58.4648C225.194 60.2878 226.203 62.5013 226.203 65.1055C226.203 65.431 225.878 66.9284 225.227 69.5977ZM290.852 161.492C276.138 161.492 264.224 157.814 255.109 150.457C245.148 142.319 240.168 130.926 240.168 116.277C240.168 99.3503 244.27 85.1576 252.473 73.6992C261.392 61.1992 273.306 54.9492 288.215 54.9492C299.022 54.9492 307.844 56.7721 314.68 60.418C323.078 64.9102 327.277 71.8112 327.277 81.1211C327.277 87.6315 323.599 93.556 316.242 98.8945C312.987 101.238 306.086 104.884 295.539 109.832L258.234 127.508C261.88 132.911 266.405 136.98 271.809 139.715C277.277 142.449 283.625 143.816 290.852 143.816C295.344 143.816 300.617 142.97 306.672 141.277C314.354 139.129 319.302 136.329 321.516 132.879C323.729 129.363 326.105 127.605 328.645 127.605C330.923 127.605 332.941 128.484 334.699 130.242C336.522 131.935 337.434 133.921 337.434 136.199C337.434 143.426 331.607 149.643 319.953 154.852C309.992 159.279 300.292 161.492 290.852 161.492ZM288.215 72.5273C280.272 72.5273 273.664 75.6198 268.391 81.8047C263.117 87.9245 259.178 97.1693 256.574 109.539L286.555 95.2812C298.339 89.5521 306.737 84.5716 311.75 80.3398C306.151 75.1315 298.306 72.5273 288.215 72.5273ZM400.422 161.102C390.461 161.102 381.411 159.148 373.273 155.242C371.19 158.367 368.651 159.93 365.656 159.93C363.182 159.93 361.066 159.051 359.309 157.293C357.616 155.6 356.77 153.452 356.77 150.848C356.77 149.155 356.835 146.648 356.965 143.328C357.16 140.008 357.258 137.501 357.258 135.809C357.258 128.908 357.062 118.589 356.672 104.852C356.346 91.0495 356.184 80.6979 356.184 73.7969C356.184 69.0443 356.216 60.0599 356.281 46.8438C356.346 33.5625 356.379 24.513 356.379 19.6953C356.379 15.7891 357.193 12.2734 358.82 9.14844C360.969 5.17708 363.931 3.19141 367.707 3.19141C372.59 3.19141 375.031 6.02344 375.031 11.6875C375.031 12.599 374.868 13.9336 374.543 15.6914C374.217 17.4492 374.055 18.7839 374.055 19.6953L373.762 41.082L373.566 65.9844C379.23 62.1432 384.602 59.2786 389.68 57.3906C394.823 55.4375 399.641 54.4609 404.133 54.4609C418.13 54.4609 429.491 59.832 438.215 70.5742C446.418 80.6654 450.52 93.0677 450.52 107.781C450.52 122.625 445.734 135.223 436.164 145.574C426.594 155.926 414.68 161.102 400.422 161.102ZM404.133 72.918C398.794 72.918 393.326 74.4154 387.727 77.4102C384.992 78.9076 380.305 82.1302 373.664 87.0781L373.469 103.973L373.566 119.207L373.664 135.223C376.789 136.655 381.184 138.478 386.848 140.691C390.884 141.928 395.409 142.547 400.422 142.547C409.862 142.547 417.609 139.227 423.664 132.586C429.719 125.945 432.746 117.677 432.746 107.781C432.746 98.0807 430.305 89.9753 425.422 83.4648C420.148 76.4336 413.052 72.918 404.133 72.918Z" fill="white"/>
<path d="M519.074 161.492C509.243 161.492 500.422 159.441 492.609 155.34C483.82 150.587 477.896 143.914 474.836 135.32C474.445 134.148 474.25 133.009 474.25 131.902C474.25 129.298 475.227 127.15 477.18 125.457C479.198 123.699 481.509 122.82 484.113 122.82C486.717 122.82 488.964 124.025 490.852 126.434L495.344 133.172C497.688 136.362 500.845 138.771 504.816 140.398C508.788 141.961 513.54 142.742 519.074 142.742C526.171 142.742 532.388 140.529 537.727 136.102C543.391 131.414 546.223 125.685 546.223 118.914C546.223 109.083 542.609 101.238 535.383 95.3789C529.003 90.3008 520.539 87.2083 509.992 86.1016C502.766 85.3854 499.152 82.4557 499.152 77.3125C499.152 73.4714 501.984 70.5417 507.648 68.5234L530.988 62.7617C535.48 61.1341 538.866 58.9531 541.145 56.2188C543.423 53.4193 544.595 50.0339 544.66 46.0625C544.79 40.3333 542.577 35.7109 538.02 32.1953C533.267 28.5495 526.594 26.7266 518 26.7266C513.573 26.7266 509.276 27.8008 505.109 29.9492L494.074 36.8828C491.926 38.25 490.201 38.9336 488.898 38.9336C486.294 38.9336 484.048 37.957 482.16 36.0039C480.337 33.9857 479.426 31.707 479.426 29.168C479.426 24.0247 484.406 19.0768 494.367 14.3242C503.026 10.0924 510.155 7.97656 515.754 7.97656C529.751 7.97656 540.852 11.069 549.055 17.2539C557.844 23.8945 562.238 33.3672 562.238 45.6719C562.238 60.9714 556.053 71.0625 543.684 75.9453C542.577 76.401 541.307 76.8568 539.875 77.3125C548.534 80.5026 555.012 85.2878 559.309 91.668C563.605 97.9831 565.754 105.893 565.754 115.398C565.754 128.224 561.229 139.129 552.18 148.113C543.13 157.033 532.095 161.492 519.074 161.492Z" fill="#FF95EE"/>
</svg>
