<svg width="851" height="178" viewBox="0 0 851 178" fill="none" xmlns="http://www.w3.org/2000/svg">
<path d="M108.877 2.5509H0V173.1H22.6726V97.9234H107.526V77.7281H22.6726V22.7461H108.872V2.5509H108.877Z" fill="white"/>
<path d="M322.451 0.123257C305.261 0.123257 298.096 9.78942 298.096 19.1001C298.096 19.119 298.1 19.138 298.1 19.157C298.1 19.394 298.152 19.6216 298.162 19.8538C298.508 27.8465 305.052 34.2322 313.133 34.2322C321.399 34.2322 328.095 27.5669 328.156 19.3181C328.156 19.2802 328.171 19.2423 328.171 19.1996C328.171 19.1238 328.152 19.0574 328.147 18.9816C328.066 16.6349 327.772 14.6438 327.464 13.7242C339.282 16.232 347.524 37.3563 347.524 65.2836C347.524 114.335 318.733 157.304 286.633 157.304C266.574 157.304 255.472 146.206 255.472 120.066C255.472 101.805 257.62 89.6312 267.29 34.1327C271.586 9.7847 272.857 2.54573 272.857 2.54573H249.763C249.763 2.54573 242.578 44.1593 240.43 55.9727C228.612 123.285 210.663 159.452 184.912 159.452C167.722 159.452 158.408 141.191 158.408 116.127C158.408 81.0368 176.082 36.1569 218.345 1.42694L216.908 0C207.239 3.57919 198.286 2.38455 189.328 2.38455C176.073 2.38455 171.06 0.592579 163.179 0.592579C147.421 0.592579 141.687 13.1269 135.598 34.2512L137.03 34.967C141.327 23.5089 148.492 21.7169 157.806 21.7169C162.818 21.7169 169.624 22.793 177.505 22.793C181.446 22.793 186.103 22.4327 190.399 21.7169C152.433 55.3756 134.403 98.9421 134.403 128.306C134.403 159.096 151.594 175.57 172.369 175.57C195.293 175.57 220.005 159.817 237.556 97.155C236.48 104.674 233.615 122.219 233.615 131.529C233.615 161.248 248.302 175.57 274.09 175.57C317.429 175.57 358.62 106.821 358.62 56.338C358.625 29.8424 349.311 0.123257 322.451 0.123257Z" fill="white"/>
<path d="M712.098 28.7135C712.098 42.3607 719.75 48.0489 727.122 48.0489C727.137 48.0489 727.152 48.0452 727.167 48.0452C727.354 48.0452 727.535 48.0039 727.718 47.9964C734.046 47.7217 739.102 42.5264 739.102 36.111C739.102 29.549 733.825 24.2334 727.294 24.1844C727.264 24.1844 727.234 24.1731 727.2 24.1731C727.14 24.1731 727.088 24.1881 727.028 24.1918C725.17 24.2559 723.594 24.4895 722.866 24.7342C724.851 15.3524 741.575 8.80915 763.685 8.80915C802.52 8.80915 836.539 31.665 836.539 57.1485C836.539 73.0732 827.753 81.8865 807.057 81.8865C792.6 81.8865 782.962 80.181 739.023 72.5046C719.747 69.0939 714.015 68.0849 714.015 68.0849V86.4191C714.015 86.4191 746.961 92.1226 756.314 93.8281C809.606 103.21 838.239 117.459 838.239 137.902C838.239 151.549 823.782 158.943 803.939 158.943C776.157 158.943 740.626 144.912 713.13 111.361L712 112.501C714.834 120.178 713.888 127.285 713.888 134.397C713.888 144.919 712.469 148.899 712.469 155.156C712.469 167.666 722.393 172.217 739.117 177.051L739.684 175.914C730.612 172.503 729.193 166.815 729.193 159.421C729.193 155.442 730.045 150.039 730.045 143.782C730.045 140.654 729.76 136.957 729.193 133.546C755.841 163.686 790.333 178 813.581 178C837.958 178 851 164.353 851 147.859C851 129.661 838.528 110.043 788.918 96.1094C794.871 96.9641 808.761 99.2382 816.133 99.2382C839.661 99.2382 851 87.5788 851 67.1062C851 32.7003 796.571 5.68591e-06 756.603 5.68591e-06C735.626 -0.00408509 712.098 7.38999 712.098 28.7135Z" fill="#FF95EE"/>
<path d="M525.902 149.286C525.902 135.639 518.25 129.951 510.878 129.951C510.863 129.951 510.848 129.955 510.833 129.955C510.646 129.955 510.465 129.996 510.282 130.004C503.954 130.278 498.898 135.474 498.898 141.889C498.898 148.451 504.175 153.767 510.706 153.816C510.736 153.816 510.766 153.827 510.8 153.827C510.86 153.827 510.912 153.812 510.972 153.808C512.83 153.744 514.406 153.511 515.134 153.266C513.149 162.648 496.425 169.191 474.315 169.191C435.48 169.191 401.461 146.335 401.461 120.851C401.461 104.927 410.247 96.1135 430.943 96.1135C445.4 96.1135 455.038 97.819 498.977 105.495C518.253 108.906 523.985 109.915 523.985 109.915V91.5809C523.985 91.5809 491.039 85.8774 481.686 84.1719C428.394 74.79 399.761 60.5408 399.761 40.0982C399.761 26.451 414.218 19.0572 434.061 19.0572C461.843 19.0572 497.374 33.0883 524.87 66.6395L526 65.4988C523.166 57.8225 524.112 50.7148 524.112 43.6033C524.112 33.0808 525.531 29.1015 525.531 22.8443C525.531 10.3343 515.607 5.78266 498.883 0.948724L498.316 2.08562C507.388 5.49665 508.807 11.1852 508.807 18.5789C508.807 22.5583 507.955 27.9608 507.955 34.2177C507.955 37.3461 508.24 41.0431 508.807 44.4538C482.159 14.3136 447.667 0 424.419 0C400.042 0 387 13.6472 387 30.1405C387 48.339 399.472 67.957 449.082 81.8906C443.129 81.0359 429.239 78.7618 421.867 78.7618C398.339 78.7618 387 90.4212 387 110.894C387 145.3 441.429 178 481.397 178C502.374 178.004 525.902 170.61 525.902 149.286Z" fill="#FF95EE"/>
<path d="M637.738 87.7498C662.88 85.2798 680.169 70.3944 680.169 47.957C680.169 24.3958 664.229 2.5509 622.696 2.5509H558.495V173.1H622.696C662.88 173.1 686 157.689 686 126.945C686 101.142 669.39 88.8732 637.738 87.7498ZM656.594 50.1991C656.594 68.3747 644.021 77.4246 622.696 77.4246H581.168V22.7461H622.696C644.021 22.7461 656.594 32.2463 656.594 50.1991ZM581.168 152.905V97.6247H623.37C649.637 97.6247 662.43 106.528 662.43 125.376C662.43 144.002 649.637 152.905 623.37 152.905H581.168Z" fill="white"/>
</svg>
